<svg xmlns="http://www.w3.org/2000/svg" version="1.1" xmlns:xlink="http://www.w3.org/1999/xlink" xmlns:svgjs="http://svgjs.com/svgjs" width="1440" height="560" preserveAspectRatio="none" viewBox="0 0 1440 560"><g mask="url(&quot;#SvgjsMask1274&quot;)" fill="none"><rect width="1440" height="560" x="0" y="0" fill="url(#SvgjsLinearGradient1275)"></rect><path d="M 0,25 C 14.4,63.2 43.2,198 72,216 C 100.8,234 115.2,115 144,115 C 172.8,115 187.2,219.8 216,216 C 244.8,212.2 259.2,89.8 288,96 C 316.8,102.2 331.2,246 360,247 C 388.8,248 403.2,119.6 432,101 C 460.8,82.4 475.2,155.8 504,154 C 532.8,152.2 547.2,69.2 576,92 C 604.8,114.8 619.2,263.4 648,268 C 676.8,272.6 691.2,131.4 720,115 C 748.8,98.6 763.2,193.2 792,186 C 820.8,178.8 835.2,69.8 864,79 C 892.8,88.2 907.2,229.4 936,232 C 964.8,234.6 979.2,98 1008,92 C 1036.8,86 1051.2,196 1080,202 C 1108.8,208 1123.2,126.8 1152,122 C 1180.8,117.2 1195.2,200.6 1224,178 C 1252.8,155.4 1267.2,-3.4 1296,9 C 1324.8,21.4 1339.2,238.4 1368,240 C 1396.8,241.6 1425.6,61.6 1440,17L1440 560L0 560z" fill="rgba(15, 41, 68, 1)"></path><path d="M 0,415 C 32,428.4 96,484.8 160,482 C 224,479.2 256,399.8 320,401 C 384,402.2 416,490.4 480,488 C 544,485.6 576,398.2 640,389 C 704,379.8 736,449.2 800,442 C 864,434.8 896,354.2 960,353 C 1024,351.8 1056,449.6 1120,436 C 1184,422.4 1216,285.8 1280,285 C 1344,284.2 1408,402.6 1440,432L1440 560L0 560z" fill="rgba(0, 0, 0, 1)"></path></g><defs><mask id="SvgjsMask1274"><rect width="1440" height="560" fill="#ffffff"></rect></mask><linearGradient x1="0%" y1="50%" x2="100%" y2="50%" gradientUnits="userSpaceOnUse" id="SvgjsLinearGradient1275"><stop stop-color="#0e2a47" offset="0"></stop><stop stop-color="rgba(1, 1, 1, 1)" offset="1"></stop></linearGradient></defs></svg>